<svg id="Layer_4" data-name="Layer 4" xmlns="http://www.w3.org/2000/svg" viewBox="0 0 313.51 271.14"><defs><style>.cls-1{fill:none;stroke:#00f081;stroke-linecap:round;stroke-linejoin:round;stroke-width:39px;}</style></defs><title>logoVerde</title><path class="cls-1" d="M557.53,601.16a82.48,82.48,0,1,0,0-165q-3.9,0-7.78.36t-7.61,1.07q-3.72.71-7.37,1.75t-7.1,2.39q-3.46,1.35-6.8,3c-2.2,1.1-4.36,2.29-6.45,3.58s-4.13,2.66-6.09,4.13-3.86,3-5.69,4.63-3.57,3.34-5.24,5.12-3.27,3.63-4.78,5.56-2.94,3.92-4.28,6-2.59,4.18-3.74,6.35c-.51,1-1,2-1.48,2.95-.24.5-.48,1-.71,1.51a2.2,2.2,0,0,0-.22.7c0,.21-.07.56-.34.56H423.17a57.67,57.67,0,1,0,0,115.33Z" transform="translate(-346 -349.52)"/><path class="cls-1" d="M457,375.57a101.28,101.28,0,0,1,133.32,67.27" transform="translate(-346 -349.52)"/><path class="cls-1" d="M402.81,424" transform="translate(-346 -349.52)"/><path class="cls-1" d="M394.36,493.53A101.65,101.65,0,0,1,402.81,424" transform="translate(-346 -349.52)"/></svg>